<svg width="248" height="64" viewBox="0 0 248 64" fill="none" xmlns="http://www.w3.org/2000/svg">
<g clip-path="url(#paint0_diamond_61_2_clip_path)" data-figma-skip-parse="true"><g transform="matrix(-0.0104631 0.0930577 -0.104228 -0.00721709 186.592 70.7056)"><rect x="0" y="0" width="810.148" height="1862.68" fill="url(#paint0_diamond_61_2)" opacity="1" shape-rendering="crispEdges"/><rect x="0" y="0" width="810.148" height="1862.68" transform="scale(1 -1)" fill="url(#paint0_diamond_61_2)" opacity="1" shape-rendering="crispEdges"/><rect x="0" y="0" width="810.148" height="1862.68" transform="scale(-1 1)" fill="url(#paint0_diamond_61_2)" opacity="1" shape-rendering="crispEdges"/><rect x="0" y="0" width="810.148" height="1862.68" transform="scale(-1)" fill="url(#paint0_diamond_61_2)" opacity="1" shape-rendering="crispEdges"/></g></g><rect x="0.5" y="0.5" width="246.286" height="62.8631" rx="15.5" data-figma-gradient-fill="{&#34;type&#34;:&#34;GRADIENT_DIAMOND&#34;,&#34;stops&#34;:[{&#34;color&#34;:{&#34;r&#34;:0.98039215803146362,&#34;g&#34;:0.47450980544090271,&#34;b&#34;:0.34901961684226990,&#34;a&#34;:1.0},&#34;position&#34;:0.14999997615814209},{&#34;color&#34;:{&#34;r&#34;:0.086538463830947876,&#34;g&#34;:0.086538463830947876,&#34;b&#34;:0.086538463830947876,&#34;a&#34;:1.0},&#34;position&#34;:0.86057692766189575}],&#34;stopsVar&#34;:[{&#34;color&#34;:{&#34;r&#34;:0.98039215803146362,&#34;g&#34;:0.47450980544090271,&#34;b&#34;:0.34901961684226990,&#34;a&#34;:1.0},&#34;position&#34;:0.14999997615814209},{&#34;color&#34;:{&#34;r&#34;:0.086538463830947876,&#34;g&#34;:0.086538463830947876,&#34;b&#34;:0.086538463830947876,&#34;a&#34;:1.0},&#34;position&#34;:0.86057692766189575}],&#34;transform&#34;:{&#34;m00&#34;:-20.926242828369141,&#34;m01&#34;:-208.45579528808594,&#34;m02&#34;:301.28286743164062,&#34;m10&#34;:186.11541748046875,&#34;m11&#34;:-14.434170722961426,&#34;m12&#34;:-15.135013580322266},&#34;opacity&#34;:1.0,&#34;blendMode&#34;:&#34;NORMAL&#34;,&#34;visible&#34;:true}"/>
<rect x="0.5" y="0.5" width="246.286" height="62.8631" rx="15.5" stroke="#2F2F2F"/>
<path d="M11.3525 10.8728C11.8662 10.873 12.3078 11.1774 12.5098 11.615L49.6533 48.8748V23.2849L49.6602 23.1541C49.7257 22.5111 50.2684 22.0085 50.9287 22.0085C51.589 22.0085 52.1317 22.5111 52.1973 23.1541L52.2041 23.2849V52.075C52.2041 52.7794 51.6332 53.3503 50.9287 53.3503C50.4132 53.3503 49.9706 53.0443 49.7695 52.6042L12.6279 15.3464L12.6279 40.9343L12.6211 41.0652C12.5556 41.7081 12.0127 42.2095 11.3525 42.2097C10.6922 42.2097 10.1495 41.7082 10.084 41.0652L10.0762 40.9343L10.0762 12.1482C10.0763 11.4438 10.6481 10.8728 11.3525 10.8728Z" fill="white"/>
<path d="M36.9418 37.7303C33.9659 40.7062 29.141 40.7062 26.1651 37.7303C23.1892 34.7544 23.1892 29.9295 26.1651 26.9536C29.141 23.9776 33.9659 23.9776 36.9418 26.9536C39.9178 29.9295 39.9178 34.7544 36.9418 37.7303Z" fill="#161616"/>
<path d="M35.138 35.9262C37.1175 33.9466 37.1176 30.7367 35.138 28.7571C33.1585 26.7777 29.9485 26.7777 27.9689 28.7571C25.9893 30.7367 25.9894 33.9466 27.9689 35.9262L26.1652 37.7299L25.8952 37.4461C23.2795 34.5513 23.2791 30.1329 25.8945 27.2379L26.1652 26.9534C29.1411 23.9777 33.9658 23.9777 36.9417 26.9534L37.2124 27.2379C39.9149 30.2293 39.8244 34.847 36.9417 37.7299L36.6572 38.0006C33.6658 40.7032 29.0481 40.6128 26.1652 37.7299L27.9689 35.9262C29.9485 37.9058 33.1584 37.9058 35.138 35.9262Z" fill="white"/>
<circle cx="42.3923" cy="20.3057" r="1.62252" fill="white"/>
<circle cx="50.563" cy="12.135" r="1.62252" fill="white"/>
<circle cx="19.7346" cy="43.2588" r="1.62252" fill="white"/>
<circle cx="11.6225" cy="51.0754" r="1.62252" fill="white"/>
<path d="M228.658 32.1918C226.595 32.1918 225.06 31.6942 224.054 30.6989C223.059 29.6932 222.562 28.1588 222.562 26.0957V22.5188C222.562 20.4453 223.059 18.9109 224.054 17.9156C225.06 16.9203 226.595 16.4227 228.658 16.4227H234.692V11.6017C234.692 10.7309 235.127 10.2954 235.998 10.2954C236.869 10.2954 237.304 10.7309 237.304 11.6017V30.8855C237.304 31.7564 236.869 32.1918 235.998 32.1918C235.127 32.1918 234.692 31.7564 234.692 30.8855V30.6678C234.204 31.1654 233.567 31.5438 232.779 31.803C231.991 32.0622 231.011 32.1918 229.84 32.1918H228.658ZM228.658 29.5792H229.84C231.208 29.5792 232.359 29.4029 233.292 29.0504C234.225 28.6979 234.692 28.1588 234.692 27.4331V19.0353H228.658C227.31 19.0353 226.392 19.2841 225.905 19.7818C225.418 20.2691 225.174 21.1814 225.174 22.5188V26.0957C225.174 27.4434 225.418 28.361 225.905 28.8483C226.403 29.3355 227.32 29.5792 228.658 29.5792Z" fill="white"/>
<path d="M204.021 32.1919C203.15 32.1919 202.715 31.7564 202.715 30.8856V17.729C202.715 16.8582 203.15 16.4227 204.021 16.4227C204.892 16.4227 205.327 16.8582 205.327 17.729V18.2422C206.426 17.0292 208.044 16.4227 210.179 16.4227H211.05C213.124 16.4227 214.658 16.9204 215.653 17.9157C216.649 18.911 217.146 20.4454 217.146 22.5189V30.8856C217.146 31.7564 216.711 32.1919 215.84 32.1919C214.969 32.1919 214.534 31.7564 214.534 30.8856V22.5189C214.534 21.1607 214.285 20.2432 213.787 19.7663C213.3 19.279 212.388 19.0354 211.05 19.0354H210.179C208.935 19.0354 207.852 19.1805 206.929 19.4708C206.006 19.7507 205.472 20.1965 205.327 20.8082V30.8856C205.327 31.7564 204.892 32.1919 204.021 32.1919Z" fill="white"/>
<path d="M194.504 13.8723C193.519 13.8723 193.026 13.3747 193.026 12.3794V11.4618C193.026 10.4873 193.519 10 194.504 10H195.405C196.349 10 196.821 10.4873 196.821 11.4618V12.3794C196.821 13.3747 196.349 13.8723 195.405 13.8723H194.504ZM194.939 32.1919C194.068 32.1919 193.633 31.7564 193.633 30.8856V17.7291C193.633 16.8582 194.068 16.4227 194.939 16.4227C195.81 16.4227 196.245 16.8582 196.245 17.7291V30.8856C196.245 31.7564 195.81 32.1919 194.939 32.1919Z" fill="white"/>
<path d="M168.909 32.192C168.038 32.192 167.602 31.7565 167.602 30.8857V12.4106C167.602 11.5397 168.038 11.1042 168.909 11.1042C169.479 11.1042 169.956 11.3842 170.339 11.944L177.68 22.9855L177.12 23.0788L184.522 11.944C184.875 11.3842 185.403 11.1042 186.108 11.1042C186.813 11.1042 187.166 11.5397 187.166 12.4106V30.8857C187.166 31.7565 186.731 32.192 185.86 32.192C184.989 32.192 184.553 31.7565 184.553 30.8857V15.0232L185.362 15.3031L178.83 24.9139C178.447 25.4738 177.918 25.7537 177.244 25.7537C176.778 25.7537 176.353 25.4738 175.969 24.9139L169.437 15.3031L170.215 15.5209V30.8857C170.215 31.7565 169.779 32.192 168.909 32.192Z" fill="white"/>
<path d="M153.239 32.1919C151.176 32.1919 149.642 31.6942 148.636 30.6989C147.641 29.7036 147.143 28.1796 147.143 26.1268V22.5189C147.143 20.435 147.641 18.9006 148.636 17.9157C149.642 16.9204 151.176 16.4227 153.239 16.4227H155.79C157.863 16.4227 159.398 16.9204 160.393 17.9157C161.388 18.911 161.886 20.4454 161.886 22.5189V26.0957C161.886 28.1589 161.388 29.6933 160.393 30.6989C159.398 31.6942 157.863 32.1919 155.79 32.1919H153.239ZM149.756 26.1268C149.756 27.4642 150 28.3766 150.487 28.8639C150.974 29.3408 151.892 29.5792 153.239 29.5792H155.79C157.148 29.5792 158.066 29.3356 158.543 28.8483C159.03 28.361 159.273 27.4435 159.273 26.0957V22.5189C159.273 21.1607 159.03 20.2432 158.543 19.7663C158.066 19.279 157.148 19.0354 155.79 19.0354H153.239C152.337 19.0354 151.632 19.139 151.124 19.3464C150.627 19.5434 150.274 19.8959 150.067 20.4039C149.86 20.9015 149.756 21.6065 149.756 22.5189V26.1268Z" fill="white"/>
<path d="M136.53 32.1919C135.659 32.1919 135.224 31.7564 135.224 30.8856V17.729C135.224 16.8582 135.659 16.4227 136.53 16.4227C137.401 16.4227 137.836 16.8582 137.836 17.729V18.9421C138.448 18.1126 139.226 17.4854 140.169 17.0603C141.123 16.6353 142.211 16.4227 143.435 16.4227C144.306 16.4227 144.741 16.8582 144.741 17.729C144.741 18.5999 144.306 19.0354 143.435 19.0354C141.641 19.0354 140.273 19.3671 139.329 20.0307C138.386 20.6942 137.888 21.5703 137.836 22.6588V30.8856C137.836 31.7564 137.401 32.1919 136.53 32.1919Z" fill="white"/>
<path d="M127.444 16.4227C128.315 16.4227 128.751 16.8582 128.751 17.729V30.8856C128.751 31.7564 128.315 32.1919 127.444 32.1919C126.574 32.1919 126.138 31.7564 126.138 30.8856V30.3724C125.039 31.5854 123.422 32.1919 121.286 32.1919H120.415C118.352 32.1919 116.818 31.6942 115.812 30.6989C114.817 29.6933 114.319 28.1589 114.319 26.0957V17.729C114.319 16.8582 114.755 16.4227 115.625 16.4227C116.496 16.4227 116.932 16.8582 116.932 17.729V26.0957C116.932 27.4435 117.175 28.361 117.663 28.8483C118.16 29.3356 119.078 29.5792 120.415 29.5792H121.286C122.53 29.5792 123.614 29.4341 124.536 29.1438C125.469 28.8535 126.003 28.4077 126.138 27.8064V17.729C126.138 16.8582 126.574 16.4227 127.444 16.4227Z" fill="white"/>
<path d="M96.7838 25.3804V26.1268C96.7838 27.4643 97.0274 28.3766 97.5147 28.8639C98.002 29.3408 98.9195 29.5793 100.267 29.5793H102.818C103.875 29.5793 104.658 29.4808 105.166 29.2838C105.674 29.0868 106.011 28.7395 106.177 28.2418C106.291 27.8479 106.446 27.5472 106.643 27.3399C106.851 27.1325 107.162 27.0288 107.576 27.0288C108.012 27.0288 108.344 27.1429 108.572 27.371C108.8 27.599 108.872 27.9308 108.789 28.3662C108.561 29.6518 107.95 30.6108 106.954 31.2433C105.959 31.8757 104.58 32.1919 102.818 32.1919H100.267C98.2041 32.1919 96.6697 31.6943 95.6641 30.699C94.6688 29.7037 94.1711 28.1796 94.1711 26.1268V22.5189C94.1711 20.4143 94.6688 18.8695 95.6641 17.8846C96.6697 16.8893 98.2041 16.402 100.267 16.4228H102.818C104.891 16.4228 106.426 16.9204 107.421 17.9157C108.416 18.9006 108.914 20.435 108.914 22.5189V24.0741C108.914 24.9449 108.478 25.3804 107.608 25.3804H96.7838ZM100.267 19.0354C98.9195 19.0147 98.002 19.2479 97.5147 19.7352C97.0274 20.2225 96.7838 21.1504 96.7838 22.5189V22.7677H106.301V22.5189C106.301 21.1608 106.058 20.2432 105.57 19.7663C105.093 19.279 104.176 19.0354 102.818 19.0354H100.267Z" fill="white"/>
<path d="M72.6842 32.192C71.8134 32.192 71.3779 31.7565 71.3779 30.8857V12.4106C71.3779 11.5397 71.8134 11.1042 72.6842 11.1042C73.1301 11.1042 73.5655 11.3634 73.9906 11.8818L86.4939 27.9931H85.8408V12.4106C85.8408 11.5397 86.2762 11.1042 87.1471 11.1042C88.018 11.1042 88.4534 11.5397 88.4534 12.4106V30.8857C88.4534 31.7565 88.018 32.192 87.1471 32.192C86.6805 32.192 86.2451 31.9328 85.8408 31.4144L73.3374 15.3031H73.9906V30.8857C73.9906 31.7565 73.5551 32.192 72.6842 32.192Z" fill="white"/>
<path d="M232.225 53.6947C231.733 53.6947 231.487 53.4488 231.487 52.9571V49.3744L227.466 42.9642C227.22 42.5427 227.296 42.1973 227.694 41.9281C228.116 41.6705 228.455 41.7466 228.713 42.1564L232.225 47.7938L235.913 42.1564C236.036 41.9632 236.185 41.849 236.361 41.8139C236.537 41.7729 236.721 41.8227 236.914 41.9632C237.342 42.2266 237.418 42.5603 237.142 42.9642L232.963 49.3744V52.9571C232.963 53.4488 232.717 53.6947 232.225 53.6947Z" fill="white"/>
<path d="M204.13 53.6947C203.638 53.6947 203.392 53.4488 203.392 52.9571V42.5252C203.392 42.0335 203.638 41.7876 204.13 41.7876H208.239C209.311 41.7876 210.13 42.0744 210.698 42.6481C211.272 43.216 211.558 44.0355 211.558 45.1068V45.6337C211.558 46.705 211.272 47.5275 210.698 48.1012C210.13 48.669 209.311 48.9529 208.239 48.9529H204.867V52.9571C204.867 53.4488 204.621 53.6947 204.13 53.6947ZM204.867 47.4777H208.239C208.907 47.4777 209.381 47.3372 209.662 47.0562C209.943 46.7752 210.083 46.3011 210.083 45.6337V45.1068C210.083 44.4453 209.943 43.9741 209.662 43.6931C209.381 43.4062 208.907 43.2628 208.239 43.2628H204.867V47.4777Z" fill="white"/>
<path d="M176.557 53.6245C176.089 53.443 175.948 53.121 176.135 52.6585L180.315 42.3671C180.491 41.9808 180.766 41.7876 181.141 41.7876H181.176C181.556 41.8052 181.814 41.9983 181.949 42.3671L186.199 52.6585C186.386 53.121 186.251 53.443 185.795 53.6245C185.332 53.8059 185.01 53.6713 184.829 53.2205L183.88 50.9199H178.41L177.505 53.2205C177.324 53.6771 177.008 53.8118 176.557 53.6245ZM178.989 49.4447H183.274L181.088 44.1234L178.989 49.4447Z" fill="white"/>
<path d="M159.223 53.7298C159.03 53.8528 158.846 53.8908 158.67 53.844C158.494 53.7972 158.345 53.6771 158.222 53.484L155.5 48.9529H153.041V52.9571C153.041 53.4488 152.796 53.6947 152.304 53.6947C151.812 53.6947 151.566 53.4488 151.566 52.9571V42.5252C151.566 42.0335 151.812 41.7876 152.304 41.7876H156.413C157.485 41.7876 158.304 42.0744 158.872 42.6481C159.446 43.216 159.733 44.0355 159.733 45.1068V45.6337C159.733 46.5645 159.516 47.308 159.083 47.8641C158.65 48.4144 158.023 48.7568 157.204 48.8915L159.504 52.7288C159.727 53.1386 159.633 53.4723 159.223 53.7298ZM153.041 47.4777H156.413C157.081 47.4777 157.555 47.3372 157.836 47.0562C158.117 46.7752 158.257 46.3011 158.257 45.6337V45.1068C158.257 44.4453 158.117 43.9741 157.836 43.6931C157.555 43.4062 157.081 43.2628 156.413 43.2628H153.041V47.4777Z" fill="white"/>
<path d="M127.145 53.6947C126.654 53.6947 126.408 53.4488 126.408 52.9571V42.5252C126.408 42.0335 126.654 41.7876 127.145 41.7876H133.45C133.942 41.7876 134.188 42.0335 134.188 42.5252C134.188 43.0169 133.942 43.2628 133.45 43.2628H127.883V46.9509H131.378C131.87 46.9509 132.115 47.1967 132.115 47.6885C132.115 48.1802 131.87 48.4261 131.378 48.4261H127.883V52.2195H133.45C133.942 52.2195 134.188 52.4654 134.188 52.9571C134.188 53.4488 133.942 53.6947 133.45 53.6947H127.145Z" fill="white"/>
<path d="M98.7969 53.6947C98.6038 53.6947 98.4311 53.6215 98.2789 53.4752C98.1325 53.323 98.0593 53.1503 98.0593 52.9571V42.5252C98.0593 42.332 98.1325 42.1623 98.2789 42.0159C98.4311 41.8637 98.6038 41.7876 98.7969 41.7876C98.9901 41.7876 99.1599 41.8637 99.3062 42.0159C99.4584 42.1623 99.5345 42.332 99.5345 42.5252V46.9333H106.7V42.5252C106.7 42.332 106.773 42.1623 106.919 42.0159C107.066 41.8637 107.238 41.7876 107.437 41.7876C107.631 41.7876 107.8 41.8637 107.947 42.0159C108.099 42.1623 108.175 42.332 108.175 42.5252V52.9571C108.175 53.1503 108.099 53.323 107.947 53.4752C107.8 53.6215 107.631 53.6947 107.437 53.6947C107.238 53.6947 107.066 53.6215 106.919 53.4752C106.773 53.323 106.7 53.1503 106.7 52.9571V48.4085H99.5345V52.9571C99.5345 53.1503 99.4584 53.323 99.3062 53.4752C99.1599 53.6215 98.9901 53.6947 98.7969 53.6947Z" fill="white"/>
<path d="M76.2602 53.6946C76.0143 53.6946 75.8299 53.6331 75.707 53.5102C75.5841 53.3873 75.5226 53.2029 75.5226 52.957V43.2803H72.1155C71.8697 43.2803 71.6853 43.2188 71.5623 43.0959C71.4394 42.9729 71.3779 42.7885 71.3779 42.5427C71.3779 42.2968 71.4394 42.1124 71.5623 41.9895C71.6853 41.8665 71.8697 41.8051 72.1155 41.8051H80.4049C80.6507 41.8051 80.8351 41.8665 80.9581 41.9895C81.081 42.1124 81.1425 42.2968 81.1425 42.5427C81.1425 42.7885 81.081 42.9729 80.9581 43.0959C80.8351 43.2188 80.6507 43.2803 80.4049 43.2803H76.9978V52.957C76.9978 53.1912 76.9334 53.3726 76.8046 53.5014C76.6817 53.6302 76.5002 53.6946 76.2602 53.6946Z" fill="white"/>
<defs>
<clipPath id="paint0_diamond_61_2_clip_path"><rect x="0.5" y="0.5" width="246.286" height="62.8631" rx="15.5"/></clipPath><linearGradient id="paint0_diamond_61_2" x1="0" y1="0" x2="500" y2="500" gradientUnits="userSpaceOnUse">
<stop offset="0.15" stop-color="#FA7959"/>
<stop offset="0.860577" stop-color="#161616"/>
</linearGradient>
</defs>
</svg>
